<?xml version="1.0" encoding="UTF-8" standalone="no"?>
<!DOCTYPE svg PUBLIC "-//W3C//DTD SVG 1.1//EN"
 "http://www.w3.org/Graphics/SVG/1.1/DTD/svg11.dtd">
<!-- Generated by graphviz version 10.0.1 (20240210.2158)
 -->
<!-- Title: Graph Pages: 1 -->
<svg width="222pt" height="1029pt"
 viewBox="0.00 0.00 222.12 1028.82" xmlns="http://www.w3.org/2000/svg" xmlns:xlink="http://www.w3.org/1999/xlink">
<g id="graph0" class="graph" transform="scale(1 1) rotate(0) translate(4 1024.82)">
<title>Graph</title>
<polygon fill="white" stroke="none" points="-4,4 -4,-1024.82 218.12,-1024.82 218.12,4 -4,4"/>
<!-- d -->
<g id="node1" class="node">
<title>d</title>
<polygon fill="none" stroke="black" points="61.38,-0.5 61.38,-71.5 156.12,-71.5 156.12,-0.5 61.38,-0.5"/>
<text text-anchor="middle" x="108.75" y="-54.2" font-family="Times New Roman,serif" font-size="14.00">d</text>
<text text-anchor="middle" x="108.75" y="-38.45" font-family="Times New Roman,serif" font-size="14.00">Shape: ()</text>
<text text-anchor="middle" x="108.75" y="-22.7" font-family="Times New Roman,serif" font-size="14.00">Dtype: float64</text>
<text text-anchor="middle" x="108.75" y="-6.95" font-family="Times New Roman,serif" font-size="14.00">Value: 94.000</text>
</g>
<!-- reshape_0 -->
<g id="node2" class="node">
<title>reshape_0</title>
<ellipse fill="none" stroke="black" cx="108.75" cy="-147.09" rx="39.09" ry="39.09"/>
<text text-anchor="middle" x="108.75" y="-141.66" font-family="Times New Roman,serif" font-size="14.00">reshape</text>
</g>
<!-- reshape_0&#45;&gt;d -->
<g id="edge1" class="edge">
<title>reshape_0&#45;&gt;d</title>
<path fill="none" stroke="black" d="M108.75,-107.61C108.75,-107.61 108.75,-83.16 108.75,-83.16"/>
<polygon fill="black" stroke="black" points="112.25,-83.16 108.75,-73.16 105.25,-83.16 112.25,-83.16"/>
</g>
<!-- RhPYlvEOHt -->
<g id="node3" class="node">
<title>RhPYlvEOHt</title>
<polygon fill="none" stroke="black" points="61.38,-222.68 61.38,-293.68 156.12,-293.68 156.12,-222.68 61.38,-222.68"/>
<text text-anchor="middle" x="108.75" y="-276.38" font-family="Times New Roman,serif" font-size="14.00">RhPYlvEOHt</text>
<text text-anchor="middle" x="108.75" y="-260.63" font-family="Times New Roman,serif" font-size="14.00">Shape: (1,)</text>
<text text-anchor="middle" x="108.75" y="-244.88" font-family="Times New Roman,serif" font-size="14.00">Dtype: float64</text>
<text text-anchor="middle" x="108.75" y="-229.13" font-family="Times New Roman,serif" font-size="14.00">Value: 94.000</text>
</g>
<!-- RhPYlvEOHt&#45;&gt;reshape_0 -->
<g id="edge2" class="edge">
<title>RhPYlvEOHt&#45;&gt;reshape_0</title>
<path fill="none" stroke="black" d="M108.75,-222.42C108.75,-222.42 108.75,-198.14 108.75,-198.14"/>
<polygon fill="black" stroke="black" points="112.25,-198.14 108.75,-188.14 105.25,-198.14 112.25,-198.14"/>
</g>
<!-- index_1 -->
<g id="node4" class="node">
<title>index_1</title>
<ellipse fill="none" stroke="black" cx="108.75" cy="-360.78" rx="30.61" ry="30.61"/>
<text text-anchor="middle" x="108.75" y="-355.36" font-family="Times New Roman,serif" font-size="14.00">index</text>
</g>
<!-- index_1&#45;&gt;RhPYlvEOHt -->
<g id="edge3" class="edge">
<title>index_1&#45;&gt;RhPYlvEOHt</title>
<path fill="none" stroke="black" d="M108.75,-329.72C108.75,-329.72 108.75,-305.32 108.75,-305.32"/>
<polygon fill="black" stroke="black" points="112.25,-305.32 108.75,-295.32 105.25,-305.32 112.25,-305.32"/>
</g>
<!-- sEOfAyYBAy -->
<g id="node5" class="node">
<title>sEOfAyYBAy</title>
<polygon fill="none" stroke="black" points="60.25,-427.89 60.25,-483.14 157.25,-483.14 157.25,-427.89 60.25,-427.89"/>
<text text-anchor="middle" x="108.75" y="-465.84" font-family="Times New Roman,serif" font-size="14.00">sEOfAyYBAy</text>
<text text-anchor="middle" x="108.75" y="-450.09" font-family="Times New Roman,serif" font-size="14.00">Shape: (8, 1)</text>
<text text-anchor="middle" x="108.75" y="-434.34" font-family="Times New Roman,serif" font-size="14.00">Dtype: float64</text>
</g>
<!-- sEOfAyYBAy&#45;&gt;index_1 -->
<g id="edge4" class="edge">
<title>sEOfAyYBAy&#45;&gt;index_1</title>
<path fill="none" stroke="black" d="M108.75,-427.6C108.75,-427.6 108.75,-403.32 108.75,-403.32"/>
<polygon fill="black" stroke="black" points="112.25,-403.32 108.75,-393.32 105.25,-403.32 112.25,-403.32"/>
</g>
<!-- reshape_2 -->
<g id="node6" class="node">
<title>reshape_2</title>
<ellipse fill="none" stroke="black" cx="108.75" cy="-558.72" rx="39.09" ry="39.09"/>
<text text-anchor="middle" x="108.75" y="-553.3" font-family="Times New Roman,serif" font-size="14.00">reshape</text>
</g>
<!-- reshape_2&#45;&gt;sEOfAyYBAy -->
<g id="edge5" class="edge">
<title>reshape_2&#45;&gt;sEOfAyYBAy</title>
<path fill="none" stroke="black" d="M108.75,-519.41C108.75,-519.41 108.75,-495.01 108.75,-495.01"/>
<polygon fill="black" stroke="black" points="112.25,-495.01 108.75,-485.01 105.25,-495.01 112.25,-495.01"/>
</g>
<!-- tGZxGFYeVI -->
<g id="node7" class="node">
<title>tGZxGFYeVI</title>
<polygon fill="none" stroke="black" points="58,-634.31 58,-689.56 159.5,-689.56 159.5,-634.31 58,-634.31"/>
<text text-anchor="middle" x="108.75" y="-672.26" font-family="Times New Roman,serif" font-size="14.00">tGZxGFYeVI</text>
<text text-anchor="middle" x="108.75" y="-656.51" font-family="Times New Roman,serif" font-size="14.00">Shape: (2, 2, 2)</text>
<text text-anchor="middle" x="108.75" y="-640.76" font-family="Times New Roman,serif" font-size="14.00">Dtype: float64</text>
</g>
<!-- tGZxGFYeVI&#45;&gt;reshape_2 -->
<g id="edge6" class="edge">
<title>tGZxGFYeVI&#45;&gt;reshape_2</title>
<path fill="none" stroke="black" d="M108.75,-634.01C108.75,-634.01 108.75,-609.82 108.75,-609.82"/>
<polygon fill="black" stroke="black" points="112.25,-609.82 108.75,-599.82 105.25,-609.82 112.25,-609.82"/>
</g>
<!-- T_3 -->
<g id="node8" class="node">
<title>T_3</title>
<ellipse fill="none" stroke="black" cx="108.75" cy="-744.06" rx="18" ry="18"/>
<text text-anchor="middle" x="108.75" y="-738.64" font-family="Times New Roman,serif" font-size="14.00">T</text>
</g>
<!-- T_3&#45;&gt;tGZxGFYeVI -->
<g id="edge7" class="edge">
<title>T_3&#45;&gt;tGZxGFYeVI</title>
<path fill="none" stroke="black" d="M108.75,-725.84C108.75,-725.84 108.75,-701.31 108.75,-701.31"/>
<polygon fill="black" stroke="black" points="112.25,-701.31 108.75,-691.31 105.25,-701.31 112.25,-701.31"/>
</g>
<!-- c -->
<g id="node9" class="node">
<title>c</title>
<polygon fill="none" stroke="black" points="58,-798.56 58,-853.81 159.5,-853.81 159.5,-798.56 58,-798.56"/>
<text text-anchor="middle" x="108.75" y="-836.51" font-family="Times New Roman,serif" font-size="14.00">c</text>
<text text-anchor="middle" x="108.75" y="-820.76" font-family="Times New Roman,serif" font-size="14.00">Shape: (2, 2, 2)</text>
<text text-anchor="middle" x="108.75" y="-805.01" font-family="Times New Roman,serif" font-size="14.00">Dtype: float64</text>
</g>
<!-- c&#45;&gt;T_3 -->
<g id="edge8" class="edge">
<title>c&#45;&gt;T_3</title>
<path fill="none" stroke="black" d="M108.75,-798.38C108.75,-798.38 108.75,-774.05 108.75,-774.05"/>
<polygon fill="black" stroke="black" points="112.25,-774.05 108.75,-764.05 105.25,-774.05 112.25,-774.05"/>
</g>
<!-- @_4 -->
<g id="node10" class="node">
<title>@_4</title>
<ellipse fill="none" stroke="black" cx="108.75" cy="-909.44" rx="19.13" ry="19.13"/>
<text text-anchor="middle" x="108.75" y="-904.02" font-family="Times New Roman,serif" font-size="14.00">@</text>
</g>
<!-- @_4&#45;&gt;c -->
<g id="edge9" class="edge">
<title>@_4&#45;&gt;c</title>
<path fill="none" stroke="black" d="M108.75,-890.13C108.75,-890.13 108.75,-865.74 108.75,-865.74"/>
<polygon fill="black" stroke="black" points="112.25,-865.74 108.75,-855.74 105.25,-865.74 112.25,-865.74"/>
</g>
<!-- a -->
<g id="node11" class="node">
<title>a</title>
<polygon fill="none" stroke="black" points="0,-965.07 0,-1020.32 101.5,-1020.32 101.5,-965.07 0,-965.07"/>
<text text-anchor="middle" x="50.75" y="-1003.02" font-family="Times New Roman,serif" font-size="14.00">a</text>
<text text-anchor="middle" x="50.75" y="-987.27" font-family="Times New Roman,serif" font-size="14.00">Shape: (2, 2, 3)</text>
<text text-anchor="middle" x="50.75" y="-971.52" font-family="Times New Roman,serif" font-size="14.00">Dtype: float64</text>
</g>
<!-- a&#45;&gt;@_4 -->
<g id="edge10" class="edge">
<title>a&#45;&gt;@_4</title>
<path fill="none" stroke="black" d="M95.56,-964.97C95.56,-964.97 95.56,-935.25 95.56,-935.25"/>
<polygon fill="black" stroke="black" points="99.06,-935.25 95.56,-925.25 92.06,-935.25 99.06,-935.25"/>
</g>
<!-- b -->
<g id="node12" class="node">
<title>b</title>
<polygon fill="none" stroke="black" points="119.38,-965.07 119.38,-1020.32 214.12,-1020.32 214.12,-965.07 119.38,-965.07"/>
<text text-anchor="middle" x="166.75" y="-1003.02" font-family="Times New Roman,serif" font-size="14.00">b</text>
<text text-anchor="middle" x="166.75" y="-987.27" font-family="Times New Roman,serif" font-size="14.00">Shape: (3, 2)</text>
<text text-anchor="middle" x="166.75" y="-971.52" font-family="Times New Roman,serif" font-size="14.00">Dtype: float64</text>
</g>
<!-- b&#45;&gt;@_4 -->
<g id="edge11" class="edge">
<title>b&#45;&gt;@_4</title>
<path fill="none" stroke="black" d="M123.63,-964.97C123.63,-964.97 123.63,-933.44 123.63,-933.44"/>
<polygon fill="black" stroke="black" points="127.13,-933.44 123.63,-923.44 120.13,-933.44 127.13,-933.44"/>
</g>
</g>
</svg>