<?xml version="1.0" encoding="UTF-8" standalone="no"?>
<!DOCTYPE svg PUBLIC "-//W3C//DTD SVG 1.1//EN"
 "http://www.w3.org/Graphics/SVG/1.1/DTD/svg11.dtd">
<!-- Generated by graphviz version 10.0.1 (20240210.2158)
 -->
<!-- Title: Graph Pages: 1 -->
<svg width="220pt" height="440pt"
 viewBox="0.00 0.00 220.00 440.48" xmlns="http://www.w3.org/2000/svg" xmlns:xlink="http://www.w3.org/1999/xlink">
<g id="graph0" class="graph" transform="scale(1 1) rotate(0) translate(4 436.48)">
<title>Graph</title>
<polygon fill="white" stroke="none" points="-4,4 -4,-436.48 216,-436.48 216,4 -4,4"/>
<!-- loss -->
<g id="node1" class="node">
<title>loss</title>
<polygon fill="none" stroke="black" points="57,-0.5 57,-71.5 155.5,-71.5 155.5,-0.5 57,-0.5"/>
<text text-anchor="middle" x="106.25" y="-54.2" font-family="Times New Roman,serif" font-size="14.00">loss</text>
<text text-anchor="middle" x="106.25" y="-38.45" font-family="Times New Roman,serif" font-size="14.00">Shape: ()</text>
<text text-anchor="middle" x="106.25" y="-22.7" font-family="Times New Roman,serif" font-size="14.00">Dtype: float64</text>
<text text-anchor="middle" x="106.25" y="-6.95" font-family="Times New Roman,serif" font-size="14.00">Value: 132.000</text>
</g>
<!-- *_0 -->
<g id="node2" class="node">
<title>*_0</title>
<ellipse fill="none" stroke="black" cx="106.25" cy="-126" rx="18" ry="18"/>
<text text-anchor="middle" x="106.25" y="-120.58" font-family="Times New Roman,serif" font-size="14.00">*</text>
</g>
<!-- *_0&#45;&gt;loss -->
<g id="edge1" class="edge">
<title>*_0&#45;&gt;loss</title>
<path fill="none" stroke="black" d="M106.25,-107.79C106.25,-107.79 106.25,-83.18 106.25,-83.18"/>
<polygon fill="black" stroke="black" points="109.75,-83.18 106.25,-73.18 102.75,-83.18 109.75,-83.18"/>
</g>
<!-- OIEwNtzGXN -->
<g id="node3" class="node">
<title>OIEwNtzGXN</title>
<polygon fill="none" stroke="black" points="0,-180.5 0,-251.5 98.5,-251.5 98.5,-180.5 0,-180.5"/>
<text text-anchor="middle" x="49.25" y="-234.2" font-family="Times New Roman,serif" font-size="14.00">OIEwNtzGXN</text>
<text text-anchor="middle" x="49.25" y="-218.45" font-family="Times New Roman,serif" font-size="14.00">Shape: ()</text>
<text text-anchor="middle" x="49.25" y="-202.7" font-family="Times New Roman,serif" font-size="14.00">Dtype: float64</text>
<text text-anchor="middle" x="49.25" y="-186.95" font-family="Times New Roman,serif" font-size="14.00">Value: 66.000</text>
</g>
<!-- OIEwNtzGXN&#45;&gt;*_0 -->
<g id="edge2" class="edge">
<title>OIEwNtzGXN&#45;&gt;*_0</title>
<path fill="none" stroke="black" d="M93.38,-180.17C93.38,-180.17 93.38,-150.56 93.38,-150.56"/>
<polygon fill="black" stroke="black" points="96.88,-150.56 93.38,-140.56 89.88,-150.56 96.88,-150.56"/>
</g>
<!-- lUxgNUokNU -->
<g id="node4" class="node">
<title>lUxgNUokNU</title>
<polygon fill="none" stroke="black" points="116.5,-180.5 116.5,-251.5 212,-251.5 212,-180.5 116.5,-180.5"/>
<text text-anchor="middle" x="164.25" y="-234.2" font-family="Times New Roman,serif" font-size="14.00">lUxgNUokNU</text>
<text text-anchor="middle" x="164.25" y="-218.45" font-family="Times New Roman,serif" font-size="14.00">Shape: ()</text>
<text text-anchor="middle" x="164.25" y="-202.7" font-family="Times New Roman,serif" font-size="14.00">Dtype: float64</text>
<text text-anchor="middle" x="164.25" y="-186.95" font-family="Times New Roman,serif" font-size="14.00">Value: 2.000</text>
</g>
<!-- lUxgNUokNU&#45;&gt;*_0 -->
<g id="edge3" class="edge">
<title>lUxgNUokNU&#45;&gt;*_0</title>
<path fill="none" stroke="black" d="M120.38,-180.17C120.38,-180.17 120.38,-149.27 120.38,-149.27"/>
<polygon fill="black" stroke="black" points="123.88,-149.27 120.38,-139.27 116.88,-149.27 123.88,-149.27"/>
</g>
<!-- sum_2 -->
<g id="node5" class="node">
<title>sum_2</title>
<ellipse fill="none" stroke="black" cx="49.25" cy="-314.11" rx="26.11" ry="26.11"/>
<text text-anchor="middle" x="49.25" y="-308.69" font-family="Times New Roman,serif" font-size="14.00">sum</text>
</g>
<!-- sum_2&#45;&gt;OIEwNtzGXN -->
<g id="edge4" class="edge">
<title>sum_2&#45;&gt;OIEwNtzGXN</title>
<path fill="none" stroke="black" d="M49.25,-287.56C49.25,-287.56 49.25,-263.3 49.25,-263.3"/>
<polygon fill="black" stroke="black" points="52.75,-263.3 49.25,-253.3 45.75,-263.3 52.75,-263.3"/>
</g>
<!-- a -->
<g id="node6" class="node">
<title>a</title>
<polygon fill="none" stroke="black" points="1.88,-376.73 1.88,-431.98 96.62,-431.98 96.62,-376.73 1.88,-376.73"/>
<text text-anchor="middle" x="49.25" y="-414.68" font-family="Times New Roman,serif" font-size="14.00">a</text>
<text text-anchor="middle" x="49.25" y="-398.93" font-family="Times New Roman,serif" font-size="14.00">Shape: (3, 4)</text>
<text text-anchor="middle" x="49.25" y="-383.18" font-family="Times New Roman,serif" font-size="14.00">Dtype: float64</text>
</g>
<!-- a&#45;&gt;sum_2 -->
<g id="edge5" class="edge">
<title>a&#45;&gt;sum_2</title>
<path fill="none" stroke="black" d="M49.25,-376.3C49.25,-376.3 49.25,-352.13 49.25,-352.13"/>
<polygon fill="black" stroke="black" points="52.75,-352.13 49.25,-342.13 45.75,-352.13 52.75,-352.13"/>
</g>
</g>
</svg>